<?xml version="1.0" encoding="utf-8"?>
<!-- Generator: Adobe Illustrator 19.2.1, SVG Export Plug-In . SVG Version: 6.00 Build 0)  -->
<svg version="1.1" id="Layer_1" xmlns="http://www.w3.org/2000/svg" xmlns:xlink="http://www.w3.org/1999/xlink" x="0px" y="0px"
	 viewBox="0 0 1000 1000" style="enable-background:new 0 0 1000 1000;" xml:space="preserve" preserveAspectRatio="none">
<style type="text/css">
	.st0{fill:none;stroke:#000000;stroke-miterlimit:10;}
	.st1{display:none;fill:none;stroke:#000000;stroke-width:3;stroke-miterlimit:10;}
	.st2{display:none;fill:none;stroke:#000000;stroke-width:2;stroke-miterlimit:10;}
	.st3{display:none;fill:none;stroke:#000000;stroke-miterlimit:10;}
	.st4{fill:none;stroke:#000000;stroke-width:3;stroke-miterlimit:10;}
</style>
<g>
	<line class="st0" x1="0" y1="0" x2="0" y2="1000"/>
	<line class="st0" x1="100" y1="0" x2="100" y2="1000"/>
	<line class="st0" x1="200" y1="0" x2="200" y2="1000"/>
	<line class="st0" x1="300" y1="0" x2="300" y2="1000"/>
	<line class="st0" x1="400" y1="0" x2="400" y2="1000"/>
	<line class="st0" x1="500" y1="0" x2="500" y2="1000"/>
	<line class="st0" x1="600" y1="0" x2="600" y2="1000"/>
	<line class="st0" x1="700" y1="0" x2="700" y2="1000"/>
	<line class="st0" x1="800" y1="0" x2="800" y2="1000"/>
	<line class="st0" x1="900" y1="0" x2="900" y2="1000"/>
	<line class="st0" x1="1000" y1="0" x2="1000" y2="1000"/>
</g>
<g>
	<line class="st0" x1="1000" y1="0" x2="0" y2="0"/>
	<line class="st0" x1="1000" y1="100" x2="0" y2="100"/>
	<line class="st0" x1="1000" y1="200" x2="0" y2="200"/>
	<line class="st0" x1="1000" y1="300" x2="0" y2="300"/>
	<line class="st0" x1="1000" y1="400" x2="0" y2="400"/>
	<line class="st0" x1="1000" y1="500" x2="0" y2="500"/>
	<line class="st0" x1="1000" y1="600" x2="0" y2="600"/>
	<line class="st0" x1="1000" y1="700" x2="0" y2="700"/>
	<line class="st0" x1="1000" y1="800" x2="0" y2="800"/>
	<line class="st0" x1="1000" y1="900" x2="0" y2="900"/>
	<line class="st0" x1="1000" y1="1000" x2="0" y2="1000"/>
</g>
<circle class="st1" cx="500" cy="500" r="293.2"/>
<line class="st2" x1="500" y1="93.5" x2="500" y2="906.5"/>
<line class="st2" x1="906.5" y1="500" x2="93.5" y2="500"/>
<line class="st3" x1="787.4" y1="212.6" x2="212.6" y2="787.4"/>
<line class="st3" x1="787.4" y1="787.4" x2="212.6" y2="212.6"/>
<line class="st4" x1="500" y1="0" x2="500" y2="1000"/>
<line class="st4" x1="1000" y1="500" x2="0" y2="500"/>
</svg>
